<svg xmlns="http://www.w3.org/2000/svg" version="1.1" xmlns:xlink="http://www.w3.org/1999/xlink" xmlns:svgjs="http://svgjs.dev/svgjs" width="1000" height="1125" viewBox="0 0 1000 1125"><g transform="matrix(1,0,0,1,1.7053025658242404e-13,0)"><svg viewBox="0 0 320 360" data-background-color="#ffffff" preserveAspectRatio="xMidYMid meet" height="1125" width="1000" xmlns="http://www.w3.org/2000/svg" xmlns:xlink="http://www.w3.org/1999/xlink"><defs></defs><g id="tight-bounds" transform="matrix(1,0,0,1,0,0)"><svg viewBox="0 0 320 360" height="360" width="320"><g><svg></svg></g><g><svg viewBox="0 0 320 360" height="360" width="320"><g><path d="M20.961 227.22l3.726 4.658-1.863-6.056c-0.466-2.795-3.726 0.466-1.863 1.398M25.153 224.425c1.397 2.329 2.795 4.658 2.795 6.987 0 3.261 2.795 4.658 5.123 5.589-3.261-3.726-5.124-13.974-7.918-12.576M204.017 26.929c7.918 0 15.371-0.932 23.756 0.931 20.495 5.124 37.729 15.371 49.374 29.811l32.606 52.169c1.397 13.042 4.192 27.482 3.726 43.319 3.261 0 2.795-4.658 6.521-5.59-3.726 9.316-5.59 20.961-6.521 34.469-2.329-7.453 0-18.632 0.466-24.687-3.261 5.124-5.124 1.397-5.124-0.932 0.466-3.726-1.397-3.261-2.795-4.658-5.124-4.658-8.384-9.782-12.11-17.7 2.329-6.055 2.795-14.905-4.658-19.563-2.329-1.397-5.124-3.726-6.521-7.453-1.863-5.124-5.124-11.179-4.193-19.097 0.466-2.329-6.987 5.124-11.179 1.863-18.166-12.576-36.332-27.016-58.224-39.127-11.645 0-20.029-4.192-24.221-9.316-3.726-4.658-0.932-10.713 4.658-11.179 3.261 0 6.987-0.932 9.782 0.932 0.466-1.863 2.329-4.192 4.657-4.192M157.904 16.215l0.932 0.466c4.658 0.932 6.987 7.453 12.11 5.124 0 3.261 0.466 6.521-0.466 8.85-1.397 3.726-5.59 3.726-8.85 3.726-31.208-1.863-49.374 11.179-68.471 22.358-5.124 3.261-10.713 5.59-14.906 9.782-20.029 18.632-41.921 35.866-47.045 70.335l-4.192 38.195c-0.466 4.192-5.124 8.384-4.192 13.508l3.26 22.824c-3.261-3.261-5.124 0.932-4.192 2.795 0.466 1.397 2.329 6.055 5.124 1.863 3.726 6.987 7.453 20.495 12.576 26.55 15.837 18.632 36.332 35.4 53.101 52.169 4.192-0.932 7.453-0.932 8.384-3.727 1.397 2.795-1.397 5.59-3.726 6.056 7.453 4.658 15.837 8.85 27.016 9.781 14.44 0.932 27.948 3.261 40.524 6.522 6.521-1.863 13.042-2.795 20.029-3.261 2.329 0 3.726-3.726 6.521-4.658l0.466-4.658c2.795 4.192 2.329-1.397 0.466-4.192 3.261 2.795 4.192 5.124 5.589 6.987 0-1.397 3.726-6.521 3.727-0.466l0.931-6.055c1.397-0.932 1.863 5.124 3.261 0.931 1.397-4.192 4.192-0.932 6.987-2.329-0.932 1.863-0.466 5.59 2.794 3.261l3.727-3.261c2.329 5.59 6.055 3.261 7.918 2.329 20.495-13.042 40.99-28.413 60.553-43.784l-0.466 6.055 2.329-7.453c2.329 2.329 4.192 0.466 5.124-0.931 2.795-4.658 6.521-9.316 12.577-13.508-7.453 20.029-16.303 35.866-27.482 48.908l-4.658 5.59c0 3.261-0.932 7.453-4.658 7.918-1.863 0.466-5.59-0.932-8.384 1.863-1.397 1.863 3.261 5.59-0.466 2.795-3.261-2.329-6.521 0-10.248 0.932-2.795 0.932 1.863 3.726 2.795 5.589 0.932 1.863 1.863 3.726 1.398 6.056l-5.124-5.59c-6.055 3.261-9.782 9.316-14.906 13.974-2.329 1.863-1.397 5.124-1.397 7.918-3.261 0-6.987-0.932-8.85 0.932-1.397 1.863-0.932 4.658-0.932 7.453-4.658-0.466-5.124-7.453-9.315-6.056-4.192 0.932-8.85 1.397-12.577 3.727 2.795 5.59-4.658 2.329-3.726 3.26-6.987-4.192-13.042-7.453-20.495-4.658-15.837-5.124-35.4-2.795-49.84-0.931 0-2.329 0.466-4.658-0.466-5.124-0.932 2.329-3.726 1.397-3.26 1.397-8.85-6.055-17.7-9.782-27.016-14.905-8.384 0.932-16.303-3.261-18.632-5.59-6.521-6.055-13.974-2.795-20.029-4.192-13.042-3.261-17.7-16.769-19.098-26.084-0.932-4.658-4.658-6.521-6.055-6.056-6.055-19.563-15.371-37.263-22.824-55.429-1.863-4.658-1.397-9.316-1.397-14.44 2.329 0.932 4.658 0.466 4.192-2.794-2.329-15.371-7.918-27.016-13.974-38.195 3.261-15.837 3.726-34.469 11.179-48.443 6.521-12.576 18.632-19.098 27.016-29.811 2.795-3.726 2.795-8.85 5.59-12.11 9.316-9.316 18.632-19.098 28.879-27.482 4.658-3.726 10.247 0 17.234-1.397 2.329-8.384 11.645-15.837 20.495-13.508 3.726 0.932 11.179-8.85 13.508-9.782 3.726-1.397 1.863 3.726 1.863 6.987 8.85-6.987 20.961-10.713 32.14-14.906" fill="#e8772e" data-fill-palette-color="tertiary"></path></g><g transform="matrix(1,0,0,1,64,93.50218340611353)"><svg viewBox="0 0 192 172.99563318777294" height="172.99563318777294" width="192"><g><svg viewBox="0 0 192 172.99563318777294" height="172.99563318777294" width="192"><g><svg viewBox="0 0 192 172.99563318777294" height="172.99563318777294" width="192"><g><svg viewBox="0 0 192 172.99563318777294" height="172.99563318777294" width="192"><g><svg viewBox="0 0 192 172.99563318777294" height="172.99563318777294" width="192"><g><svg viewBox="0 0 192 172.99563318777294" height="172.99563318777294" width="192"><g transform="matrix(1,0,0,1,0,0)"><svg width="192" viewBox="1.600000023841858 -29.049999237060547 34.35000228881836 30.94999885559082" height="172.99563318777294" data-palette-color="#e8772e"><path d="M8.7-0.85Q8.7-0.2 9.35-0.2 10-0.2 11.1-1.58 12.2-2.95 12.6-2.9L12.6-2.9Q12.9-2.6 11.95-1.6L11.95-1.6Q11.85-1.5 11.6-1.07 11.35-0.65 11.18-0.4 11-0.15 10.7 0.25 10.4 0.65 10.15 0.9 9.9 1.15 9.6 1.4L9.6 1.4Q9 1.9 8.55 1.9 8.1 1.9 7.33 1.73 6.55 1.55 6.53 1.35 6.5 1.15 6.5 1L6.5 1Q6.5-1.6 10.75-9.65L10.75-9.65Q10.1-9.65 9.73-9.7 9.35-9.75 9.28-10.1 9.2-10.45 9.47-10.5 9.75-10.55 10.05-10.5 10.35-10.45 11.1-10.45L11.1-10.45Q13.65-15.05 14.15-16.07 14.65-17.1 14.65-17.55 14.65-18 14.6-18.25L14.6-18.25Q14.8-19.65 17.03-21.93 19.25-24.2 21.05-24.2L21.05-24.2Q21.65-24.2 22.68-23.75 23.7-23.3 23.85-22.73 24-22.15 23.93-22.08 23.85-22 23.6-22.1 23.35-22.2 23.3-22.2L23.3-22.2Q19.7-22.2 13.05-10.45L13.05-10.45Q18.5-10.7 24.23-12.63 29.95-14.55 33-17.7L33-17.7Q34.75-19.4 34.75-21.3L34.75-21.3Q34.75-26.9 23.3-26.9L23.3-26.9Q16.75-26.9 10.8-24.9L10.8-24.9Q7.7-23.8 5.53-21.95 3.35-20.1 2.95-17.75L2.95-17.75Q2.9-17.5 2.9-17.1 2.9-16.7 3.23-16.13 3.55-15.55 4-15.25 4.45-14.95 5.28-14.55 6.1-14.15 6.38-13.95 6.65-13.75 6.5-13.53 6.35-13.3 5.85-13.4L5.85-13.4Q4.3-13.65 2.95-14.95 1.6-16.25 1.6-17.75L1.6-17.75Q1.6-18.2 1.7-18.65L1.7-18.65Q1.6-19.3 1.6-19.45L1.6-19.45Q2.3-23.2 8.95-26.6L8.95-26.6Q14.2-29.05 21.35-29.05L21.35-29.05Q25.75-29.05 30.05-27.85L30.05-27.85Q32.95-26.85 34.45-25 35.95-23.15 35.95-21.25L35.95-21.25Q35.95-18.35 33.65-16.13 31.35-13.9 28.5-12.7L28.5-12.7Q21.75-9.8 12.6-9.6L12.6-9.6Q10.65-6 9.68-3.75 8.7-1.5 8.7-0.85Z" opacity="1" transform="matrix(1,0,0,1,0,0)" fill="#e8772e" class="undefined-text-0" data-fill-palette-color="primary" id="text-0"></path></svg></g></svg></g></svg></g></svg></g><g></g></svg></g></svg></g></svg></g></svg></g></svg><rect width="320" height="360" fill="none" stroke="none" visibility="hidden"></rect></g></svg></g></svg>